<svg xmlns="http://www.w3.org/2000/svg" aria-hidden="true" style="position:absolute;width:0;height:0;overflow:hidden"><defs><symbol id="icon-fuel-pump" viewBox="0 0 32 32"><path d="M6 5a.997.997 0 0 1 1-1h10a.997.997 0 0 1 1 1v10a.997.997 0 0 1-1 1H7a.997.997 0 0 1-1-1V5z"/><path d="M2 4a4.003 4.003 0 0 1 4-4h12a4.003 4.003 0 0 1 4 4v16a4.003 4.003 0 0 1 4 4v1a.997.997 0 0 0 1 1 .997.997 0 0 0 1-1v-9h-1a.997.997 0 0 1-1-1V8.75a.997.997 0 0 1 1-1h2.99c-.022-.952-.106-1.788-.402-2.444a1.944 1.944 0 0 0-.788-.916C28.432 4.17 27.872 4 27 4a.997.997 0 0 1-1-1 .997.997 0 0 1 1-1c1.128-.003 2.069.221 2.824.672.766.456 1.268 1.102 1.588 1.814.59 1.31.588 2.93.588 4.162v6.35c0 .132-.025.262-.076.383s-.124.232-.217.325a.991.991 0 0 1-.708.293h-1v9a3.004 3.004 0 0 1-3 3 2.998 2.998 0 0 1-3-3v-1a2 2 0 0 0-2-2v8h1a.997.997 0 0 1 1 1 .997.997 0 0 1-1 1h-22a.997.997 0 0 1-1-1 .997.997 0 0 1 1-1h1v-26zm18 0a2 2 0 0 0-2-2H6a2 2 0 0 0-2 2v26h16V4z"/></symbol><symbol id="icon-radio" viewBox="0 0 32 32"><path d="M14 5a.997.997 0 0 1 1-1h14a.997.997 0 0 1 1 1v2a.997.997 0 0 1-1 1H15a.997.997 0 0 1-1-1V5zM0 24a5.996 5.996 0 0 1 6-6 6.002 6.002 0 0 1 4.243 10.243A6 6 0 0 1 0 24zm14-3a.997.997 0 0 1 1-1h14a.997.997 0 0 1 1 1v2a.997.997 0 0 1-1 1H15a.997.997 0 0 1-1-1v-2zm0-10a.997.997 0 0 1 1-1h10a.997.997 0 0 1 1 1 .997.997 0 0 1-1 1H15a.997.997 0 0 1-1-1zm0 16a.997.997 0 0 1 1-1h10a.997.997 0 0 1 1 1 .997.997 0 0 1-1 1H15a.997.997 0 0 1-1-1zM6 2a5.99 5.99 0 0 0-4.243 1.758A6.01 6.01 0 0 0-.001 8.001a5.99 5.99 0 0 0 1.758 4.243A6.01 6.01 0 0 0 6 14.002a5.996 5.996 0 0 0 6-6 5.996 5.996 0 0 0-6-6zm0 9a3.004 3.004 0 0 1-3-3 3.004 3.004 0 0 1 3-3 3.004 3.004 0 0 1 3 3 3.004 3.004 0 0 1-3 3z"/></symbol><symbol id="icon-solar-fridge" viewBox="0 0 32 32"><path d="M23.667 9.333a.997.997 0 0 0-1-1 .997.997 0 0 0-1 1V12a.997.997 0 0 0 1 1 .997.997 0 0 0 1-1V9.333zm0 9.334a.997.997 0 0 0-1-1 .997.997 0 0 0-1 1v2.667a.997.997 0 0 0 1 1 .997.997 0 0 0 1-1v-2.667z"/><path d="M16.075 1.667h-.149c-2.451 0-4.392 0-5.911.204-1.563.211-2.828.653-3.827 1.651-.997.999-1.44 2.264-1.651 3.827-.204 1.52-.204 3.46-.204 5.911v4.149c0 2.451 0 4.392.204 5.911.211 1.563.653 2.828 1.651 3.827.613.612 1.325 1.015 2.145 1.284v.904a1 1 0 0 0 1 1h1.333a.997.997 0 0 0 1-1v-.395c1.209.061 2.62.061 4.259.061h.149c1.64 0 3.049 0 4.259-.061v.395a1 1 0 0 0 1 1h1.333a.997.997 0 0 0 1-1v-.904c.82-.269 1.533-.672 2.145-1.284.997-.999 1.44-2.264 1.651-3.827.204-1.52.204-3.46.204-5.911v-4.148c0-2.451 0-4.392-.204-5.911-.211-1.563-.653-2.828-1.651-3.827-.999-.997-2.264-1.44-3.827-1.651-1.52-.204-3.46-.204-5.911-.204zM7.603 4.936c.564-.564 1.337-.903 2.679-1.083 1.371-.184 3.176-.187 5.719-.187s4.349.003 5.72.187c1.34.18 2.113.519 2.677 1.083s.903 1.337 1.083 2.679c.184 1.371.187 3.176.187 5.719v1H6.335v-1c0-2.543.003-4.348.187-5.72.18-1.34.519-2.113 1.083-2.677zm-1.27 11.397h19.333v1c0 2.543-.003 4.349-.187 5.72-.18 1.34-.519 2.113-1.083 2.677s-1.337.903-2.679 1.083c-1.371.184-3.176.187-5.719.187s-4.348-.003-5.72-.187c-1.34-.18-2.113-.519-2.677-1.083s-.903-1.337-1.083-2.679c-.184-1.369-.187-3.176-.187-5.719v-1z"/></symbol><symbol id="icon-kitchen" viewBox="0 0 32 32"><path d="M1 12a1.007 1.007 0 0 0-.779.374.997.997 0 0 0-.197.842l3.304 14.868A5.003 5.003 0 0 0 8.208 32h11.584a4.996 4.996 0 0 0 4.88-3.916l.262-1.18a6 6 0 0 0 2.601-11.708l.442-1.98c.032-.146.032-.298-.003-.443s-.1-.282-.194-.399a1.002 1.002 0 0 0-.779-.374h-26zm25 13a4.05 4.05 0 0 1-.632-.05l1.734-7.796A4.002 4.002 0 0 1 26 25zM5.28 27.65 2.246 14h23.508L22.72 27.65A2.995 2.995 0 0 1 19.792 30H8.208a2.998 2.998 0 0 1-2.928-2.35zM8.8 1.6l-.006.008-.028.038c-.146.2-.282.407-.408.62a4.003 4.003 0 0 0-.282.534c-.052.12-.068.184-.074.206v.008c.023.177.085.346.182.496.15.266.356.544.616.89l.02.024c.236.316.52.694.74 1.086.224.4.44.91.44 1.49 0 .376-.13.736-.238.988a6.075 6.075 0 0 1-.404.776 10.2 10.2 0 0 1-.506.764l-.036.05-.01.016-.004.004a1.004 1.004 0 0 1-1.4.202A1.004 1.004 0 0 1 7.2 8.4l.006-.008.028-.038c.146-.2.282-.407.408-.62.107-.171.202-.349.282-.534.052-.12.068-.184.074-.206a1.199 1.199 0 0 0-.18-.504A8.024 8.024 0 0 0 7.2 5.6l-.02-.024c-.27-.345-.517-.708-.74-1.086A3.066 3.066 0 0 1 6 3c0-.376.13-.736.238-.988.118-.276.268-.548.404-.776.159-.261.328-.516.506-.764l.05-.07A1.004 1.004 0 0 1 8.598.2 1.004 1.004 0 0 1 8.8 1.6zm6 0-.006.008-.028.038c-.146.2-.282.407-.408.62a4.003 4.003 0 0 0-.282.534c-.052.12-.068.184-.074.206v.008c.023.177.085.346.182.496.15.266.356.544.616.89l.02.024c.236.316.52.694.74 1.086.224.4.44.91.44 1.49 0 .376-.13.736-.238.988a6.075 6.075 0 0 1-.404.776 10.2 10.2 0 0 1-.506.764l-.036.05-.01.016-.004.004a1.004 1.004 0 0 1-1.4.202 1.004 1.004 0 0 1-.202-1.4l.006-.008.028-.038c.146-.2.282-.407.408-.62.107-.171.202-.349.282-.534.052-.12.068-.184.074-.206a1.199 1.199 0 0 0-.18-.504 8.024 8.024 0 0 0-.618-.89l-.02-.024c-.27-.345-.517-.708-.74-1.086A3.066 3.066 0 0 1 12 3c0-.376.13-.736.238-.988.118-.276.268-.548.404-.776.159-.261.328-.516.506-.764l.05-.07a1.004 1.004 0 0 1 1.4-.202 1.004 1.004 0 0 1 .202 1.4zm6 0-.006.008-.028.038c-.146.2-.282.407-.408.62a4.003 4.003 0 0 0-.282.534c-.052.12-.068.184-.074.206v.008c.023.177.085.346.182.496.15.266.356.544.616.89l.02.024c.236.316.52.694.74 1.086.224.4.44.91.44 1.49 0 .376-.13.736-.238.988a6.075 6.075 0 0 1-.404.776 9.875 9.875 0 0 1-.504.764l-.038.05-.01.016-.004.004a1.004 1.004 0 0 1-1.4.202 1.004 1.004 0 0 1-.202-1.4l.006-.008.028-.038c.146-.2.282-.407.408-.62.107-.171.202-.349.282-.534.052-.12.068-.184.074-.206a1.199 1.199 0 0 0-.18-.504 8.024 8.024 0 0 0-.618-.89l-.02-.024c-.27-.345-.517-.708-.74-1.086A3.066 3.066 0 0 1 18 3c0-.376.13-.736.238-.988.118-.276.268-.548.404-.776.159-.261.328-.516.506-.764l.05-.07a1.004 1.004 0 0 1 1.4-.202 1.004 1.004 0 0 1 .202 1.4z"/></symbol><symbol id="icon-star" viewBox="0 0 32 32"><path d="M15.116 2.676a1 1 0 0 1 1.769 0l3.777 7.158c.145.274.408.466.714.519l7.975 1.38a1 1 0 0 1 .547 1.682l-5.641 5.804a1 1 0 0 0-.273.839l1.152 8.01a1 1 0 0 1-1.431 1.04l-7.263-3.571a.998.998 0 0 0-.882 0l-7.262 3.571a1 1 0 0 1-1.431-1.04l1.152-8.01a1 1 0 0 0-.273-.839l-5.64-5.804a1 1 0 0 1 .547-1.682l7.974-1.38a.998.998 0 0 0 .714-.519l3.776-7.158z"/></symbol><symbol id="icon-TV" viewBox="0 0 32 32"><path d="M0 7.5s0-4 4-4h24s4 0 4 4v12s0 4-4 4h-8c0 1.333.167 2.333.5 3H22a.997.997 0 0 1 1 1 .997.997 0 0 1-1 1H10a.997.997 0 0 1-1-1 .997.997 0 0 1 1-1h1.5c.333-.667.5-1.667.5-3H4s-4 0-4-4v-12zm2.796-1.71c-.22.153-.395.361-.508.604A3.013 3.013 0 0 0 2 7.52V19.5c0 .65.156 1.004.29 1.204.14.208.341.377.604.508.338.162.703.259 1.076.286l.05.002H28c.65 0 1.004-.156 1.204-.29.22-.153.395-.361.508-.604.162-.338.259-.703.286-1.076l.002-.05V7.5c0-.65-.156-1.004-.29-1.204a1.511 1.511 0 0 0-.604-.508A3.018 3.018 0 0 0 27.98 5.5H4c-.65 0-1.004.156-1.204.29z"/></symbol><symbol id="icon-transmission" viewBox="0 0 32 32"><path d="M12 7a3.004 3.004 0 0 1 3-3h2a3.004 3.004 0 0 1 3 3v2a3.004 3.004 0 0 1-3 3v2h11a.997.997 0 0 1 1 1v2a.997.997 0 0 1-1 1 .997.997 0 0 1-1-1v-1H17v1a.997.997 0 0 1-1 1 .997.997 0 0 1-1-1v-1H5v1a.997.997 0 0 1-1 1 .997.997 0 0 1-1-1v-2a.997.997 0 0 1 1-1h11v-2a3.004 3.004 0 0 1-3-3V7zm5 3a.997.997 0 0 0 1-1V7a.997.997 0 0 0-1-1h-2a.997.997 0 0 0-1 1v2a.997.997 0 0 0 1 1h2zM0 23a3.004 3.004 0 0 1 3-3h2a3.004 3.004 0 0 1 3 3v2a3.004 3.004 0 0 1-3 3H3a3.004 3.004 0 0 1-3-3v-2zm3-1a.997.997 0 0 0-1 1v2a.997.997 0 0 0 1 1h2a.997.997 0 0 0 1-1v-2a.997.997 0 0 0-1-1H3zm9 1a3.004 3.004 0 0 1 3-3h2a3.004 3.004 0 0 1 3 3v2a3.004 3.004 0 0 1-3 3h-2a3.004 3.004 0 0 1-3-3v-2zm3-1a.997.997 0 0 0-1 1v2a.997.997 0 0 0 1 1h2a.997.997 0 0 0 1-1v-2a.997.997 0 0 0-1-1h-2zm9 1a3.004 3.004 0 0 1 3-3h2a3.004 3.004 0 0 1 3 3v2a3.004 3.004 0 0 1-3 3h-2a3.004 3.004 0 0 1-3-3v-2zm3-1a.997.997 0 0 0-1 1v2a.997.997 0 0 0 1 1h2a.997.997 0 0 0 1-1v-2a.997.997 0 0 0-1-1h-2z"/></symbol><symbol id="icon-bathroom" viewBox="0 0 32 32"><path d="M7.226 28.387a1.548 1.548 0 0 1-3.068.301 1.55 1.55 0 1 1 3.067-.303zm2.58-5.677a1.548 1.548 0 0 0-.301 3.068 1.549 1.549 0 1 0 .303-3.066zm-8.258 0a1.548 1.548 0 0 0-.301 3.068 1.549 1.549 0 1 0 .302-3.066zm4.129-4.129a1.548 1.548 0 0 0-.301 3.068 1.549 1.549 0 1 0 .302-3.066zM32 3.097a1.035 1.035 0 0 1-1.032 1.032h-3.702l-3.593 3.595-2.795 16.36a2.07 2.07 0 0 1-2.523 1.663 2.062 2.062 0 0 1-.973-.546L4.737 12.556A2.062 2.062 0 0 1 5.858 9.06l16.354-2.796 3.897-3.897a1.037 1.037 0 0 1 .73-.302h4.129A1.029 1.029 0 0 1 32 3.097zM21.447 8.489 6.194 11.097l12.645 12.645 2.608-15.253z"/></symbol><symbol id="icon-grid1x2" viewBox="0 0 32 32"><path d="M12 2H2v28h10V2zm18 0H20v10h10V2zm0 18v10H20V20h10zM0 2a2 2 0 0 1 2-2h10a2 2 0 0 1 2 2v28a2 2 0 0 1-2 2H2a2 2 0 0 1-2-2V2zm18 0a2 2 0 0 1 2-2h10a2 2 0 0 1 2 2v10a2 2 0 0 1-2 2H20a2 2 0 0 1-2-2V2zm2 16a2 2 0 0 0-2 2v10a2 2 0 0 0 2 2h10a2 2 0 0 0 2-2V20a2 2 0 0 0-2-2H20z"/></symbol><symbol id="icon-grid2x2" viewBox="0 0 32 32"><path d="M0 3.429A3.428 3.428 0 0 1 3.428.001h6.857a3.428 3.428 0 0 1 3.428 3.428v6.857a3.428 3.428 0 0 1-3.428 3.428H3.428A3.428 3.428 0 0 1 0 10.286V3.429zm3.429-1.143a1.14 1.14 0 0 0-1.143 1.143v6.857a1.14 1.14 0 0 0 1.143 1.143h6.857a1.14 1.14 0 0 0 1.143-1.143V3.429a1.14 1.14 0 0 0-1.143-1.143H3.429zm14.857 1.143A3.428 3.428 0 0 1 21.714.001h6.857a3.428 3.428 0 0 1 3.428 3.428v6.857a3.428 3.428 0 0 1-3.428 3.428h-6.857a3.428 3.428 0 0 1-3.428-3.428V3.429zm3.428-1.143a1.14 1.14 0 0 0-1.143 1.143v6.857a1.14 1.14 0 0 0 1.143 1.143h6.857a1.14 1.14 0 0 0 1.143-1.143V3.429a1.14 1.14 0 0 0-1.143-1.143h-6.857zM0 21.714a3.428 3.428 0 0 1 3.428-3.428h6.857a3.428 3.428 0 0 1 3.428 3.428v6.857a3.428 3.428 0 0 1-3.428 3.428H3.428A3.428 3.428 0 0 1 0 28.571v-6.857zm3.429-1.143a1.14 1.14 0 0 0-1.143 1.143v6.857a1.14 1.14 0 0 0 1.143 1.143h6.857a1.14 1.14 0 0 0 1.143-1.143v-6.857a1.14 1.14 0 0 0-1.143-1.143H3.429zm14.857 1.143a3.428 3.428 0 0 1 3.428-3.428h6.857a3.428 3.428 0 0 1 3.428 3.428v6.857a3.428 3.428 0 0 1-3.428 3.428h-6.857a3.428 3.428 0 0 1-3.428-3.428v-6.857zm3.428-1.143a1.14 1.14 0 0 0-1.143 1.143v6.857a1.14 1.14 0 0 0 1.143 1.143h6.857a1.14 1.14 0 0 0 1.143-1.143v-6.857a1.14 1.14 0 0 0-1.143-1.143h-6.857z"/></symbol><symbol id="icon-grid3x3" viewBox="0 0 32 32"><path d="M6.857 2.286v4.571H2.286V2.286h4.571zm2.286 27.428v-4.571a2.287 2.287 0 0 0-2.285-2.285H2.287a2.287 2.287 0 0 0-2.285 2.285v4.571a2.287 2.287 0 0 0 2.285 2.285h4.571a2.287 2.287 0 0 0 2.285-2.285zm0-11.428v-4.571a2.287 2.287 0 0 0-2.285-2.285H2.287a2.287 2.287 0 0 0-2.285 2.285v4.571a2.287 2.287 0 0 0 2.285 2.285h4.571a2.287 2.287 0 0 0 2.285-2.285zm0-11.429V2.286A2.287 2.287 0 0 0 6.858.001H2.287A2.287 2.287 0 0 0 .002 2.286v4.571a2.287 2.287 0 0 0 2.285 2.285h4.571a2.287 2.287 0 0 0 2.285-2.285zm11.428 22.857v-4.571a2.287 2.287 0 0 0-2.285-2.285h-4.571a2.287 2.287 0 0 0-2.285 2.285v4.571a2.287 2.287 0 0 0 2.285 2.285h4.571a2.287 2.287 0 0 0 2.285-2.285zm0-11.428v-4.571a2.287 2.287 0 0 0-2.285-2.285h-4.571a2.287 2.287 0 0 0-2.285 2.285v4.571a2.287 2.287 0 0 0 2.285 2.285h4.571a2.287 2.287 0 0 0 2.285-2.285zm0-11.429V2.286A2.287 2.287 0 0 0 18.286.001h-4.571a2.287 2.287 0 0 0-2.285 2.285v4.571a2.287 2.287 0 0 0 2.285 2.285h4.571a2.287 2.287 0 0 0 2.285-2.285zm-2.285-4.571v4.571h-4.571V2.286h4.571zm11.428 0v4.571h-4.571V2.286h4.571zM6.857 13.714v4.571H2.286v-4.571h4.571zm11.429 0v4.571h-4.571v-4.571h4.571zm11.428 0h-4.571v4.571h4.571v-4.571zM6.857 25.143v4.571H2.286v-4.571h4.571zm11.429 0v4.571h-4.571v-4.571h4.571zm11.428 0v4.571h-4.571v-4.571h4.571zM25.143 0a2.287 2.287 0 0 0-2.285 2.285v4.571a2.287 2.287 0 0 0 2.285 2.285h4.571a2.287 2.287 0 0 0 2.285-2.285V2.285A2.287 2.287 0 0 0 29.714 0h-4.571zm-2.286 13.714a2.287 2.287 0 0 1 2.285-2.285h4.571a2.287 2.287 0 0 1 2.285 2.285v4.571a2.287 2.287 0 0 1-2.285 2.285h-4.571a2.287 2.287 0 0 1-2.285-2.285v-4.571zm2.286 9.143a2.287 2.287 0 0 0-2.285 2.285v4.571a2.287 2.287 0 0 0 2.285 2.285h4.571a2.287 2.287 0 0 0 2.285-2.285v-4.571a2.287 2.287 0 0 0-2.285-2.285h-4.571z"/></symbol><symbol id="icon-like" viewBox="0 0 32 32"><path d="m16 12.472-1.788-3.578c-.444-.886-1.214-2.16-2.304-3.19C10.836 4.69 9.552 4 8 4 4.648 4 2 6.652 2 9.84c0 2.422 1.108 4.132 3.736 6.74.674.668 1.442 1.39 2.292 2.186C10.244 20.846 13 23.434 16 26.894c3-3.46 5.756-6.048 7.972-8.128.85-.796 1.62-1.52 2.292-2.186C28.892 13.972 30 12.262 30 9.84 30 6.652 27.352 4 24 4c-1.554 0-2.836.69-3.908 1.704-1.09 1.03-1.86 2.304-2.304 3.19L16 12.472zm.784 16.584a1.022 1.022 0 0 1-1.216.269 1.04 1.04 0 0 1-.352-.269c-3.202-3.804-6.1-6.524-8.486-8.762C2.6 16.416 0 13.978 0 9.84 0 5.51 3.58 2 8 2c3.2 0 5.438 2.1 6.808 4.016.52.73.916 1.432 1.192 1.984.346-.691.745-1.354 1.192-1.984C18.562 4.098 20.8 2 24 2c4.42 0 8 3.51 8 7.84 0 4.138-2.6 6.576-6.73 10.454-2.386 2.24-5.284 4.962-8.486 8.762z"/></symbol><symbol id="icon-location" viewBox="0 0 32 32"><path d="M31.634.226A.991.991 0 0 1 32 1v28a.999.999 0 0 1-.804.98l-10 2a.995.995 0 0 1-.392 0L11 30.02l-9.804 1.96a.995.995 0 0 1-1.1-.552A1.003 1.003 0 0 1 0 31V3a.999.999 0 0 1 .804-.98l10-2a.995.995 0 0 1 .392 0L21 1.98 30.804.02a.996.996 0 0 1 .83.206zM20 3.82l-8-1.6v25.96l8 1.6V3.82zm2 25.96 8-1.6V2.22l-8 1.6v25.96zm-12-1.6V2.22l-8 1.6v25.96l8-1.6z"/></symbol><symbol id="icon-AC" viewBox="0 0 32 32"><path d="M25 4a5 5 0 0 0-5 5 .997.997 0 0 1-1 1 .997.997 0 0 1-1-1 6.994 6.994 0 0 1 4.322-6.467 6.998 6.998 0 0 1 9.544 5.102 7.006 7.006 0 0 1-2.976 7.186 6.994 6.994 0 0 1-3.889 1.18h-24a.997.997 0 0 1-1-1 .997.997 0 0 1 1-1h24a5 5 0 0 0 0-10zM11 6a2 2 0 0 0-2 2 .997.997 0 0 1-1 1 .997.997 0 0 1-1-1 4.004 4.004 0 0 1 2.469-3.695A4 4 0 1 1 11 12H1a.997.997 0 0 1-1-1 .997.997 0 0 1 1-1h10a2 2 0 0 0 0-4zM0 19a.997.997 0 0 1 1-1h20.084a5.998 5.998 0 0 1 4.242 10.243 5.996 5.996 0 0 1-6.539 1.301 5.999 5.999 0 0 1-3.704-5.543.997.997 0 0 1 1-1 .997.997 0 0 1 1 1 4.004 4.004 0 0 0 2.469 3.695 4 4 0 1 0 1.531-7.695H.999a.997.997 0 0 1-1-1z"/></symbol><symbol id="icon-microwave" viewBox="0 0 32 32"><path stroke-linejoin="round" stroke="#101828" stroke-linecap="round" stroke-miterlimit="4" stroke-width="2" d="M26.667 5.333h-21.333c-1.473 0-2.667 1.194-2.667 2.667v14.667c0 1.473 1.194 2.667 2.667 2.667h21.333c1.473 0 2.667-1.194 2.667-2.667v-14.667c0-1.473-1.194-2.667-2.667-2.667z"></path><path stroke-linejoin="round" stroke="#101828" stroke-linecap="round" stroke-miterlimit="4" stroke-width="2" d="M17.333 10.667h-8c-0.736 0-1.333 0.597-1.333 1.333v6.667c0 0.736 0.597 1.333 1.333 1.333h8c0.736 0 1.333-0.597 1.333-1.333v-6.667c0-0.736-0.597-1.333-1.333-1.333z"></path><path stroke-linejoin="round" stroke="#101828" stroke-linecap="round" stroke-miterlimit="4" stroke-width="2" d="M24 10.667v9.333M8 25.333v2.667M24 25.333v2.667"></path></symbol><symbol id="icon-water" viewBox="0 0 32 32"><path stroke-linejoin="miter" stroke="#101828" stroke-linecap="butt" stroke-miterlimit="10" stroke-width="2" d="M25 20c0 5.523-3.477 9-9 9s-9-3.477-9-9c0-5.927 6.452-13.928 8.431-16.242 0.070-0.082 0.158-0.148 0.256-0.194s0.205-0.069 0.314-0.069c0.108 0 0.215 0.023 0.314 0.069s0.186 0.111 0.256 0.194c1.978 2.314 8.43 10.316 8.43 16.242z"></path><path stroke-linejoin="round" stroke="#101828" stroke-linecap="round" stroke-miterlimit="4" stroke-width="2" d="M21.5 20.5c0 1.194-0.474 2.338-1.318 3.182s-1.988 1.318-3.182 1.318"></path></symbol><symbol id="icon-gas" viewBox="0 0 32 32"><path stroke-linejoin="round" stroke="#101828" stroke-linecap="round" stroke-miterlimit="4" stroke-width="2.4" d="M8 25.333h5.333M24 25.345v-0.012M2.667 8c0-4.413 0.92-5.333 5.333-5.333h16c4.413 0 5.333 0.92 5.333 5.333v16c0 4.413-0.92 5.333-5.333 5.333h-16c-4.413 0-5.333-0.92-5.333-5.333v-16z"></path><path stroke-linejoin="round" stroke="#101828" stroke-linecap="round" stroke-miterlimit="4" stroke-width="2.4" d="M16 18.667c2.945 0 5.333-2.388 5.333-5.333s-2.388-5.333-5.333-5.333-5.333 2.388-5.333 5.333c0 2.946 2.388 5.333 5.333 5.333z"></path><path stroke-linejoin="round" stroke="#101828" stroke-linecap="round" stroke-miterlimit="4" stroke-width="2.4" d="M20.667 13.333h2M16 18v2M11.333 13.333h-2M16 8.667v-2"></path></symbol></defs></svg>